<?xml version="1.0" encoding="UTF-8" standalone="no"?>
<svg width="480px" height="223px" viewBox="0 0 480 223" version="1.1" xmlns="http://www.w3.org/2000/svg" xmlns:xlink="http://www.w3.org/1999/xlink" xmlns:sketch="http://www.bohemiancoding.com/sketch/ns">
    <!-- Generator: Sketch 3.5.1 (25234) - http://www.bohemiancoding.com/sketch -->
    <title>nearst-2016-black</title>
    <desc>Created with Sketch.</desc>
    <defs></defs>
    <g id="Page-1" stroke="none" stroke-width="1" fill="none" fill-rule="evenodd" sketch:type="MSPage">
        <path d="M433.108885,0.610955946 L46.8901187,0.610955946 C21.0349174,0.610955946 0,21.6458734 0,47.5010746 L0,175.330796 C0,201.186994 21.0349174,222.221912 46.8901187,222.221912 L433.108885,222.221912 C458.965083,222.221912 480,201.186994 480,175.330796 L480,47.5010746 C480,21.6458734 458.965083,0.610955946 433.108885,0.610955946 L433.108885,0.610955946 Z M461.18335,175.330796 C461.18335,190.771952 448.549542,203.405262 433.108885,203.405262 L46.8901187,203.405262 C31.4494617,203.405262 18.8166499,190.771952 18.8166499,175.330796 L18.8166499,47.5010746 C18.8166499,32.0614143 31.4494617,19.4281042 46.8901187,19.4281042 L433.108885,19.4281042 C448.549542,19.4281042 461.18335,32.0614143 461.18335,47.5010746 L461.18335,175.330796 Z M146.933436,55.6470155 L146.933436,150.562551 C146.933436,155.680863 142.640433,159.971375 137.524612,159.971375 C134.387341,159.971375 131.416527,158.320756 129.764414,155.844829 L81.0696791,85.5246021 L81.0696791,150.562551 C81.0696791,155.680863 76.7771744,159.971375 71.6608558,159.971375 C66.543042,159.971375 62.2505373,155.680863 62.2505373,150.562551 L62.2505373,55.6470155 C62.2505373,50.5292017 66.543042,46.2381921 71.6608558,46.2381921 C74.9620923,46.2381921 77.6024836,47.7228515 79.2531019,50.198779 L128.113796,121.015886 L128.113796,55.6470155 C128.113796,50.5292017 132.406799,46.2381921 137.524612,46.2381921 C142.640433,46.2381921 146.933436,50.5292017 146.933436,55.6470155 L146.933436,55.6470155 Z M225.927881,114.247454 C225.927881,102.857589 220.811562,81.3980563 192.913522,81.3980563 C170.464216,81.3980563 157.257774,95.5942708 157.257774,120.849927 C157.257774,148.417047 171.453989,160.798677 194.399676,160.798677 C209.421698,160.798677 218.169676,154.360668 220.976026,151.718283 C222.462181,150.398586 223.782376,148.253081 223.782376,145.610696 C223.782376,141.319687 220.315181,137.852491 216.024171,137.852491 C213.878666,137.852491 212.556976,138.513337 210.741894,139.669069 C206.779812,142.30946 201.661998,144.785387 194.399676,144.785387 C183.505197,144.785387 175.085648,139.338646 175.085648,127.4524 L215.858212,127.4524 C225.927881,127.4524 225.927881,120.35504 225.927881,114.247454 L225.927881,114.247454 Z M175.580534,112.596835 C176.405843,102.03228 183.338739,96.5840437 192.913522,96.5840437 C203.64254,96.5840437 208.265966,104.508208 208.265966,112.596835 L175.580534,112.596835 Z M266.01817,81.3980563 C251.821955,81.3980563 243.568864,86.8462928 238.945937,91.9626115 C237.461277,93.6132298 236.800432,95.5942708 236.800432,97.410848 C236.800432,101.701857 240.267627,105.169053 244.558637,105.169053 C246.539678,105.169053 247.859874,104.672671 249.510492,103.518435 C253.638533,100.546126 258.754851,97.2448891 266.01817,97.2448891 C275.592952,97.2448891 281.039693,102.196744 281.039693,109.626021 L281.039693,112.596835 L259.415697,112.596835 C245.053523,112.596835 232.673886,120.519504 232.673886,135.87145 C232.673886,150.729009 243.402905,160.798677 259.580161,160.798677 C269.485365,160.798677 276.747189,158.320756 281.204157,151.223895 C281.204157,156.011286 285.166239,159.971375 289.95363,159.971375 C294.741021,159.971375 298.702107,156.011286 298.702107,151.223895 L298.702107,108.965176 C298.702107,91.467725 286.486435,81.3980563 266.01817,81.3980563 L266.01817,81.3980563 Z M281.039693,131.084059 C281.039693,140.328419 272.951066,145.941119 264.203088,145.941119 C254.958728,145.941119 250.50176,142.144996 250.50176,135.87145 C250.50176,129.929823 254.463842,126.462627 261.725665,126.462627 L281.039693,126.462627 L281.039693,131.084059 Z M354.012272,89.9815705 C354.012272,94.6044978 350.214156,98.4006209 345.592724,98.4006209 C334.202859,98.4006209 327.76485,105.663939 327.76485,116.723381 L327.76485,151.059431 C327.76485,156.011286 323.802768,159.971375 318.850913,159.971375 C313.899058,159.971375 309.936976,156.011286 309.936976,151.059431 L309.936976,91.3017661 C309.936976,86.3499112 313.899058,82.3893244 318.850913,82.3893244 C323.802768,82.3893244 327.76485,86.3499112 327.76485,91.3017661 L327.76485,92.1285704 C330.901623,85.690561 338.659828,81.5640152 345.592724,81.5640152 C350.214156,81.5640152 354.012272,85.3601383 354.012272,89.9815705 L354.012272,89.9815705 Z M401.772056,97.1666442 C401.772056,107.573214 392.915432,112.888883 381.511115,112.888883 C371.990655,112.888883 364.682483,108.570961 361.915505,105.138652 C361.028895,104.031761 360.585342,103.034014 360.585342,101.705844 C360.585342,98.8277283 363.022894,96.3911725 365.900013,96.3911725 C367.007403,96.3911725 368.114792,96.7235887 369.332821,97.7213356 C372.322075,100.155898 375.975663,102.258542 381.511115,102.258542 C386.494367,102.258542 389.703405,100.930373 389.703405,97.8299814 C389.703405,88.8617217 362.57934,93.5130564 362.57934,74.690426 C362.57934,64.7274096 370.883764,59.8552947 381.067561,59.8552947 C388.92893,59.8552947 395.905683,62.8445485 399.003582,66.7204116 C399.667418,67.604529 400.110972,68.3800006 400.110972,70.0415832 C400.110972,72.9196993 397.676409,75.3562551 394.797795,75.3562551 C393.24735,75.3562551 392.249603,74.690426 391.033568,73.8063086 C388.597012,72.0350835 385.607758,70.2628617 381.067561,70.2628617 C376.971416,70.2628617 374.536854,71.7011722 374.536854,74.4696458 C374.536854,82.6634307 401.772056,78.8987053 401.772056,97.1666442 L401.772056,97.1666442 Z M424.407754,71.3692544 L424.407754,98.1618992 C424.407754,100.710589 426.621536,102.149398 428.615535,102.149398 C431.493153,102.149398 433.819069,104.474318 433.819069,107.352434 C433.819069,110.23055 431.493153,112.556467 428.615535,112.556467 C418.761164,112.556467 412.673014,106.245543 412.673014,97.498562 L412.673014,71.3692544 L410.126816,71.3692544 C407.358342,71.3692544 405.143563,69.1549739 405.143563,66.3884938 C405.143563,63.6200201 407.358342,61.4057396 410.126816,61.4057396 L412.673014,61.4057396 L412.673014,52.1055621 C412.673014,48.8955281 415.33035,46.2381921 418.540384,46.2381921 C421.750418,46.2381921 424.407754,48.8955281 424.407754,52.1055621 L424.407754,61.4057396 L429.390508,61.4057396 C432.158483,61.4057396 434.373761,63.6200201 434.373761,66.3884938 C434.373761,69.1549739 432.158483,71.3692544 429.390508,71.3692544 L424.407754,71.3692544 Z" fill="#FFFFFF" sketch:type="MSShapeGroup"></path>
    </g>
</svg>